M48
; DRILL file {KiCad 7.0.6} date Tue Aug  8 10:34:32 2023
; FORMAT={-:-/ absolute / metric / decimal}
; #@! TF.CreationDate,2023-08-08T10:34:32+01:00
; #@! TF.GenerationSoftware,Kicad,Pcbnew,7.0.6
; #@! TF.FileFunction,MixedPlating,1,2
FMAT,2
METRIC
; #@! TA.AperFunction,Plated,PTH,ComponentDrill
T1C0.500
; #@! TA.AperFunction,Plated,PTH,ViaDrill
T2C0.800
; #@! TA.AperFunction,Plated,PTH,ComponentDrill
T3C0.800
; #@! TA.AperFunction,Plated,PTH,ComponentDrill
T4C1.020
; #@! TA.AperFunction,Plated,PTH,ComponentDrill
T5C1.500
%
G90
G05
T1
X111.93Y-68.9
X111.93Y-70.8
T2
X105.41Y-67.31
X105.41Y-72.39
X116.84Y-48.26
X130.81Y-48.26
X132.08Y-80.01
X135.255Y-100.965
X137.16Y-115.57
X139.7Y-80.01
X140.97Y-111.76
X142.24Y-66.04
X142.24Y-85.09
X143.51Y-95.25
X144.78Y-109.22
X151.13Y-101.6
X153.816Y-95.25
X158.75Y-111.76
X161.29Y-115.57
X165.1Y-109.22
T3
X115.58Y-66.05
X115.58Y-68.59
X115.58Y-71.13
X115.58Y-73.67
X123.2Y-66.05
X123.2Y-68.59
X123.2Y-71.13
X123.2Y-73.67
X127.0Y-63.5
X127.0Y-73.66
X130.81Y-63.5
X130.81Y-73.66
X133.496Y-48.027
X136.036Y-48.027
X138.576Y-48.027
X141.116Y-48.027
X143.656Y-48.027
X146.196Y-48.027
X146.196Y-129.561
X148.736Y-48.027
X148.736Y-129.561
X151.276Y-48.027
X151.276Y-129.561
X153.816Y-48.027
X153.816Y-129.561
X156.356Y-48.027
X158.896Y-48.027
X161.436Y-48.027
X163.976Y-48.027
X166.516Y-48.027
T4
X96.52Y-83.82
X96.52Y-86.36
X96.52Y-88.9
X96.52Y-91.44
X96.52Y-93.98
X96.52Y-96.52
X96.52Y-99.06
X96.52Y-101.6
X96.52Y-104.14
X96.52Y-106.68
X96.52Y-109.22
X96.52Y-111.76
X96.52Y-114.3
X96.52Y-116.84
X96.52Y-119.38
X96.52Y-121.92
X96.52Y-124.46
X96.52Y-127.0
X96.52Y-129.54
X121.92Y-83.82
X121.92Y-86.36
X121.92Y-88.9
X121.92Y-91.44
X121.92Y-93.98
X121.92Y-96.52
X121.92Y-99.06
X121.92Y-101.6
X121.92Y-104.14
X121.92Y-106.68
X121.92Y-109.22
X121.92Y-111.76
X121.92Y-114.3
X121.92Y-116.84
X121.92Y-119.38
X121.92Y-121.92
X121.92Y-124.46
X121.92Y-127.0
X121.92Y-129.54
T5
X100.98Y-54.61
X121.47Y-54.61
T0
M30
