M48
; DRILL file {KiCad 7.0.6} date Tue Aug  8 13:43:37 2023
; FORMAT={-:-/ absolute / metric / decimal}
; #@! TF.CreationDate,2023-08-08T13:43:37+01:00
; #@! TF.GenerationSoftware,Kicad,Pcbnew,7.0.6
; #@! TF.FileFunction,MixedPlating,1,2
FMAT,2
METRIC
; #@! TA.AperFunction,Plated,PTH,ComponentDrill
T1C0.800
; #@! TA.AperFunction,Plated,PTH,ComponentDrill
T2C0.889
; #@! TA.AperFunction,Plated,PTH,ComponentDrill
T3C0.900
; #@! TA.AperFunction,Plated,PTH,ComponentDrill
T4C1.190
; #@! TA.AperFunction,NonPlated,NPTH,ComponentDrill
T5C3.200
%
G90
G05
T1
X54.65Y-45.72
X57.15Y-45.72
X63.5Y-44.49
X63.5Y-46.99
X69.85Y-38.1
X72.39Y-38.1
X74.93Y-38.1
X87.67Y-45.72
X90.17Y-45.72
X96.52Y-44.49
X96.52Y-46.99
X102.87Y-38.1
X105.41Y-38.1
X107.95Y-38.1
T2
X54.16Y-56.035
X54.16Y-58.575
X54.16Y-61.115
X54.16Y-63.655
X54.16Y-66.195
X54.16Y-68.735
X54.16Y-71.275
X54.16Y-73.815
X54.16Y-76.355
X54.16Y-78.895
X54.16Y-81.435
X54.16Y-83.975
X54.16Y-86.515
X54.16Y-89.055
X54.16Y-91.595
X77.02Y-56.035
X77.02Y-58.575
X77.02Y-61.115
X77.02Y-63.655
X77.02Y-66.195
X77.02Y-68.735
X77.02Y-71.275
X77.02Y-73.815
X77.02Y-76.355
X77.02Y-78.895
X77.02Y-81.435
X77.02Y-83.975
X77.02Y-86.515
X77.02Y-89.055
X77.02Y-91.595
X87.18Y-56.035
X87.18Y-58.575
X87.18Y-61.115
X87.18Y-63.655
X87.18Y-66.195
X87.18Y-68.735
X87.18Y-71.275
X87.18Y-73.815
X87.18Y-76.355
X87.18Y-78.895
X87.18Y-81.435
X87.18Y-83.975
X87.18Y-86.515
X87.18Y-89.055
X87.18Y-91.595
X110.04Y-56.035
X110.04Y-58.575
X110.04Y-61.115
X110.04Y-63.655
X110.04Y-66.195
X110.04Y-68.735
X110.04Y-71.275
X110.04Y-73.815
X110.04Y-76.355
X110.04Y-78.895
X110.04Y-81.435
X110.04Y-83.975
X110.04Y-86.515
X110.04Y-89.055
X110.04Y-91.595
T3
X72.39Y-46.99
X74.93Y-46.99
X105.41Y-46.99
X107.95Y-46.99
T4
X54.61Y-38.295
X57.15Y-38.295
X87.63Y-38.295
X90.17Y-38.295
T5
X55.43Y-52.225
X55.43Y-95.405
X75.75Y-52.225
X75.75Y-95.405
X88.45Y-52.225
X88.45Y-95.405
X108.77Y-52.225
X108.77Y-95.405
T0
M30
