%TF.GenerationSoftware,KiCad,Pcbnew,7.0.6*%
%TF.CreationDate,2023-08-08T13:43:34+01:00*%
%TF.ProjectId,8266Node,38323636-4e6f-4646-952e-6b696361645f,rev?*%
%TF.SameCoordinates,Original*%
%TF.FileFunction,Copper,L2,Bot*%
%TF.FilePolarity,Positive*%
%FSLAX46Y46*%
G04 Gerber Fmt 4.6, Leading zero omitted, Abs format (unit mm)*
G04 Created by KiCad (PCBNEW 7.0.6) date 2023-08-08 13:43:34*
%MOMM*%
%LPD*%
G01*
G04 APERTURE LIST*
G04 Aperture macros list*
%AMRoundRect*
0 Rectangle with rounded corners*
0 $1 Rounding radius*
0 $2 $3 $4 $5 $6 $7 $8 $9 X,Y pos of 4 corners*
0 Add a 4 corners polygon primitive as box body*
4,1,4,$2,$3,$4,$5,$6,$7,$8,$9,$2,$3,0*
0 Add four circle primitives for the rounded corners*
1,1,$1+$1,$2,$3*
1,1,$1+$1,$4,$5*
1,1,$1+$1,$6,$7*
1,1,$1+$1,$8,$9*
0 Add four rect primitives between the rounded corners*
20,1,$1+$1,$2,$3,$4,$5,0*
20,1,$1+$1,$4,$5,$6,$7,0*
20,1,$1+$1,$6,$7,$8,$9,0*
20,1,$1+$1,$8,$9,$2,$3,0*%
G04 Aperture macros list end*
%TA.AperFunction,ComponentPad*%
%ADD10R,1.500000X1.500000*%
%TD*%
%TA.AperFunction,ComponentPad*%
%ADD11C,1.500000*%
%TD*%
%TA.AperFunction,ComponentPad*%
%ADD12R,1.930000X1.930000*%
%TD*%
%TA.AperFunction,ComponentPad*%
%ADD13C,1.930000*%
%TD*%
%TA.AperFunction,ComponentPad*%
%ADD14RoundRect,0.250000X-0.620000X-0.845000X0.620000X-0.845000X0.620000X0.845000X-0.620000X0.845000X0*%
%TD*%
%TA.AperFunction,ComponentPad*%
%ADD15O,1.740000X2.190000*%
%TD*%
%TA.AperFunction,ComponentPad*%
%ADD16R,1.600000X1.600000*%
%TD*%
%TA.AperFunction,ComponentPad*%
%ADD17C,1.600000*%
%TD*%
%TA.AperFunction,ComponentPad*%
%ADD18R,1.800000X1.800000*%
%TD*%
%TA.AperFunction,ComponentPad*%
%ADD19C,1.800000*%
%TD*%
%TA.AperFunction,SMDPad,CuDef*%
%ADD20R,1.500000X2.000000*%
%TD*%
%TA.AperFunction,SMDPad,CuDef*%
%ADD21R,3.800000X2.000000*%
%TD*%
%TA.AperFunction,SMDPad,CuDef*%
%ADD22RoundRect,0.250000X-0.450000X0.350000X-0.450000X-0.350000X0.450000X-0.350000X0.450000X0.350000X0*%
%TD*%
%TA.AperFunction,SMDPad,CuDef*%
%ADD23RoundRect,0.250000X0.350000X0.450000X-0.350000X0.450000X-0.350000X-0.450000X0.350000X-0.450000X0*%
%TD*%
%TA.AperFunction,Conductor*%
%ADD24C,1.000000*%
%TD*%
G04 APERTURE END LIST*
D10*
%TO.P,U1,1,VCC*%
%TO.N,+3V3*%
X107950000Y-38100000D03*
D11*
%TO.P,U1,2,IO*%
%TO.N,Net-(A1B-D1)*%
X105410000Y-38100000D03*
%TO.P,U1,3,GND*%
%TO.N,GND*%
X102870000Y-38100000D03*
%TD*%
D12*
%TO.P,A1,J1_1,A0*%
%TO.N,unconnected-(A1A-A0-PadJ1_1)*%
X87180000Y-56035000D03*
D13*
%TO.P,A1,J1_2,RSV1*%
%TO.N,unconnected-(A1A-RSV1-PadJ1_2)*%
X87180000Y-58575000D03*
%TO.P,A1,J1_3,RSV2*%
%TO.N,unconnected-(A1A-RSV2-PadJ1_3)*%
X87180000Y-61115000D03*
%TO.P,A1,J1_4,SD3*%
%TO.N,unconnected-(A1A-SD3-PadJ1_4)*%
X87180000Y-63655000D03*
%TO.P,A1,J1_5,SD2*%
%TO.N,unconnected-(A1A-SD2-PadJ1_5)*%
X87180000Y-66195000D03*
%TO.P,A1,J1_6,SD1*%
%TO.N,unconnected-(A1A-SD1-PadJ1_6)*%
X87180000Y-68735000D03*
%TO.P,A1,J1_7,CMD*%
%TO.N,unconnected-(A1A-CMD-PadJ1_7)*%
X87180000Y-71275000D03*
%TO.P,A1,J1_8,SD0*%
%TO.N,unconnected-(A1A-SD0-PadJ1_8)*%
X87180000Y-73815000D03*
%TO.P,A1,J1_9,CLK*%
%TO.N,unconnected-(A1A-CLK-PadJ1_9)*%
X87180000Y-76355000D03*
%TO.P,A1,J1_10,GND*%
%TO.N,GND*%
X87180000Y-78895000D03*
%TO.P,A1,J1_11,3V3*%
%TO.N,unconnected-(A1A-3V3-PadJ1_11)*%
X87180000Y-81435000D03*
%TO.P,A1,J1_12,EN*%
%TO.N,unconnected-(A1A-EN-PadJ1_12)*%
X87180000Y-83975000D03*
%TO.P,A1,J1_13,RST*%
%TO.N,unconnected-(A1A-RST-PadJ1_13)*%
X87180000Y-86515000D03*
%TO.P,A1,J1_14,GND*%
%TO.N,unconnected-(A1A-GND-PadJ1_14)*%
X87180000Y-89055000D03*
%TO.P,A1,J1_15,VIN*%
%TO.N,unconnected-(A1A-VIN-PadJ1_15)*%
X87180000Y-91595000D03*
D12*
%TO.P,A1,J2_1,D0*%
%TO.N,unconnected-(A1B-D0-PadJ2_1)*%
X110040000Y-56035000D03*
D13*
%TO.P,A1,J2_2,D1*%
%TO.N,Net-(A1B-D1)*%
X110040000Y-58575000D03*
%TO.P,A1,J2_3,D2*%
%TO.N,unconnected-(A1B-D2-PadJ2_3)*%
X110040000Y-61115000D03*
%TO.P,A1,J2_4,D3*%
%TO.N,unconnected-(A1B-D3-PadJ2_4)*%
X110040000Y-63655000D03*
%TO.P,A1,J2_5,D4*%
%TO.N,unconnected-(A1B-D4-PadJ2_5)*%
X110040000Y-66195000D03*
%TO.P,A1,J2_6,3V3*%
%TO.N,+3V3*%
X110040000Y-68735000D03*
%TO.P,A1,J2_7,GND*%
%TO.N,unconnected-(A1B-GND-PadJ2_7)*%
X110040000Y-71275000D03*
%TO.P,A1,J2_8,D5*%
%TO.N,unconnected-(A1B-D5-PadJ2_8)*%
X110040000Y-73815000D03*
%TO.P,A1,J2_9,D6*%
%TO.N,unconnected-(A1B-D6-PadJ2_9)*%
X110040000Y-76355000D03*
%TO.P,A1,J2_10,D7*%
%TO.N,unconnected-(A1B-D7-PadJ2_10)*%
X110040000Y-78895000D03*
%TO.P,A1,J2_11,D8*%
%TO.N,unconnected-(A1B-D8-PadJ2_11)*%
X110040000Y-81435000D03*
%TO.P,A1,J2_12,D9*%
%TO.N,unconnected-(A1B-D9-PadJ2_12)*%
X110040000Y-83975000D03*
%TO.P,A1,J2_13,D10*%
%TO.N,unconnected-(A1B-D10-PadJ2_13)*%
X110040000Y-86515000D03*
%TO.P,A1,J2_14,GND*%
%TO.N,unconnected-(A1B-GND-PadJ2_14)*%
X110040000Y-89055000D03*
%TO.P,A1,J2_15,3V3*%
%TO.N,unconnected-(A1B-3V3-PadJ2_15)*%
X110040000Y-91595000D03*
%TD*%
D14*
%TO.P,J2,1,Pin_1*%
%TO.N,Net-(J2-Pin_1)*%
X87630000Y-38295000D03*
D15*
%TO.P,J2,2,Pin_2*%
%TO.N,GND*%
X90170000Y-38295000D03*
%TD*%
D16*
%TO.P,C2,1*%
%TO.N,+3V3*%
X96520000Y-46990000D03*
D17*
%TO.P,C2,2*%
%TO.N,GND*%
X96520000Y-44490000D03*
%TD*%
D16*
%TO.P,C1,1*%
%TO.N,Net-(J2-Pin_1)*%
X87670000Y-45720000D03*
D17*
%TO.P,C1,2*%
%TO.N,GND*%
X90170000Y-45720000D03*
%TD*%
D18*
%TO.P,D1,1,K*%
%TO.N,GND*%
X105410000Y-46990000D03*
D19*
%TO.P,D1,2,A*%
%TO.N,Net-(D1-A)*%
X107950000Y-46990000D03*
%TD*%
D20*
%TO.P,U2,1,GND*%
%TO.N,GND*%
X92950000Y-55270000D03*
%TO.P,U2,2,VO*%
%TO.N,+3V3*%
X95250000Y-55270000D03*
D21*
X95250000Y-61570000D03*
D20*
%TO.P,U2,3,VI*%
%TO.N,Net-(J2-Pin_1)*%
X97550000Y-55270000D03*
%TD*%
D22*
%TO.P,R1,1*%
%TO.N,+3V3*%
X107950000Y-40910000D03*
%TO.P,R1,2*%
%TO.N,Net-(D1-A)*%
X107950000Y-42910000D03*
%TD*%
D23*
%TO.P,R2,1*%
%TO.N,+3V3*%
X105140000Y-40835000D03*
%TO.P,R2,2*%
%TO.N,Net-(A1B-D1)*%
X103140000Y-40835000D03*
%TD*%
D10*
%TO.P,U1,1,VCC*%
%TO.N,+3V3*%
X74930000Y-38100000D03*
D11*
%TO.P,U1,2,IO*%
%TO.N,Net-(A1B-D1)*%
X72390000Y-38100000D03*
%TO.P,U1,3,GND*%
%TO.N,GND*%
X69850000Y-38100000D03*
%TD*%
D12*
%TO.P,A1,J1_1,A0*%
%TO.N,unconnected-(A1A-A0-PadJ1_1)*%
X54160000Y-56035000D03*
D13*
%TO.P,A1,J1_2,RSV1*%
%TO.N,unconnected-(A1A-RSV1-PadJ1_2)*%
X54160000Y-58575000D03*
%TO.P,A1,J1_3,RSV2*%
%TO.N,unconnected-(A1A-RSV2-PadJ1_3)*%
X54160000Y-61115000D03*
%TO.P,A1,J1_4,SD3*%
%TO.N,unconnected-(A1A-SD3-PadJ1_4)*%
X54160000Y-63655000D03*
%TO.P,A1,J1_5,SD2*%
%TO.N,unconnected-(A1A-SD2-PadJ1_5)*%
X54160000Y-66195000D03*
%TO.P,A1,J1_6,SD1*%
%TO.N,unconnected-(A1A-SD1-PadJ1_6)*%
X54160000Y-68735000D03*
%TO.P,A1,J1_7,CMD*%
%TO.N,unconnected-(A1A-CMD-PadJ1_7)*%
X54160000Y-71275000D03*
%TO.P,A1,J1_8,SD0*%
%TO.N,unconnected-(A1A-SD0-PadJ1_8)*%
X54160000Y-73815000D03*
%TO.P,A1,J1_9,CLK*%
%TO.N,unconnected-(A1A-CLK-PadJ1_9)*%
X54160000Y-76355000D03*
%TO.P,A1,J1_10,GND*%
%TO.N,GND*%
X54160000Y-78895000D03*
%TO.P,A1,J1_11,3V3*%
%TO.N,unconnected-(A1A-3V3-PadJ1_11)*%
X54160000Y-81435000D03*
%TO.P,A1,J1_12,EN*%
%TO.N,unconnected-(A1A-EN-PadJ1_12)*%
X54160000Y-83975000D03*
%TO.P,A1,J1_13,RST*%
%TO.N,unconnected-(A1A-RST-PadJ1_13)*%
X54160000Y-86515000D03*
%TO.P,A1,J1_14,GND*%
%TO.N,unconnected-(A1A-GND-PadJ1_14)*%
X54160000Y-89055000D03*
%TO.P,A1,J1_15,VIN*%
%TO.N,unconnected-(A1A-VIN-PadJ1_15)*%
X54160000Y-91595000D03*
D12*
%TO.P,A1,J2_1,D0*%
%TO.N,unconnected-(A1B-D0-PadJ2_1)*%
X77020000Y-56035000D03*
D13*
%TO.P,A1,J2_2,D1*%
%TO.N,Net-(A1B-D1)*%
X77020000Y-58575000D03*
%TO.P,A1,J2_3,D2*%
%TO.N,unconnected-(A1B-D2-PadJ2_3)*%
X77020000Y-61115000D03*
%TO.P,A1,J2_4,D3*%
%TO.N,unconnected-(A1B-D3-PadJ2_4)*%
X77020000Y-63655000D03*
%TO.P,A1,J2_5,D4*%
%TO.N,unconnected-(A1B-D4-PadJ2_5)*%
X77020000Y-66195000D03*
%TO.P,A1,J2_6,3V3*%
%TO.N,+3V3*%
X77020000Y-68735000D03*
%TO.P,A1,J2_7,GND*%
%TO.N,unconnected-(A1B-GND-PadJ2_7)*%
X77020000Y-71275000D03*
%TO.P,A1,J2_8,D5*%
%TO.N,unconnected-(A1B-D5-PadJ2_8)*%
X77020000Y-73815000D03*
%TO.P,A1,J2_9,D6*%
%TO.N,unconnected-(A1B-D6-PadJ2_9)*%
X77020000Y-76355000D03*
%TO.P,A1,J2_10,D7*%
%TO.N,unconnected-(A1B-D7-PadJ2_10)*%
X77020000Y-78895000D03*
%TO.P,A1,J2_11,D8*%
%TO.N,unconnected-(A1B-D8-PadJ2_11)*%
X77020000Y-81435000D03*
%TO.P,A1,J2_12,D9*%
%TO.N,unconnected-(A1B-D9-PadJ2_12)*%
X77020000Y-83975000D03*
%TO.P,A1,J2_13,D10*%
%TO.N,unconnected-(A1B-D10-PadJ2_13)*%
X77020000Y-86515000D03*
%TO.P,A1,J2_14,GND*%
%TO.N,unconnected-(A1B-GND-PadJ2_14)*%
X77020000Y-89055000D03*
%TO.P,A1,J2_15,3V3*%
%TO.N,unconnected-(A1B-3V3-PadJ2_15)*%
X77020000Y-91595000D03*
%TD*%
D18*
%TO.P,D1,1,K*%
%TO.N,GND*%
X72390000Y-46990000D03*
D19*
%TO.P,D1,2,A*%
%TO.N,Net-(D1-A)*%
X74930000Y-46990000D03*
%TD*%
D14*
%TO.P,J2,1,Pin_1*%
%TO.N,Net-(J2-Pin_1)*%
X54610000Y-38295000D03*
D15*
%TO.P,J2,2,Pin_2*%
%TO.N,GND*%
X57150000Y-38295000D03*
%TD*%
D16*
%TO.P,C2,1*%
%TO.N,+3V3*%
X63500000Y-46990000D03*
D17*
%TO.P,C2,2*%
%TO.N,GND*%
X63500000Y-44490000D03*
%TD*%
D16*
%TO.P,C1,1*%
%TO.N,Net-(J2-Pin_1)*%
X54650000Y-45720000D03*
D17*
%TO.P,C1,2*%
%TO.N,GND*%
X57150000Y-45720000D03*
%TD*%
D22*
%TO.P,R1,1*%
%TO.N,+3V3*%
X74930000Y-40910000D03*
%TO.P,R1,2*%
%TO.N,Net-(D1-A)*%
X74930000Y-42910000D03*
%TD*%
D23*
%TO.P,R2,1*%
%TO.N,+3V3*%
X72120000Y-40835000D03*
%TO.P,R2,2*%
%TO.N,Net-(A1B-D1)*%
X70120000Y-40835000D03*
%TD*%
D20*
%TO.P,U2,1,GND*%
%TO.N,GND*%
X59930000Y-55270000D03*
%TO.P,U2,2,VO*%
%TO.N,+3V3*%
X62230000Y-55270000D03*
D21*
X62230000Y-61570000D03*
D20*
%TO.P,U2,3,VI*%
%TO.N,Net-(J2-Pin_1)*%
X64530000Y-55270000D03*
%TD*%
D24*
%TO.N,Net-(A1B-D1)*%
X111905000Y-38755000D02*
X111905000Y-58074716D01*
X105410000Y-36830000D02*
X105790000Y-36450000D01*
X111404716Y-58575000D02*
X110040000Y-58575000D01*
X111905000Y-58074716D02*
X111404716Y-58575000D01*
X105790000Y-36450000D02*
X109600000Y-36450000D01*
X109600000Y-36450000D02*
X111905000Y-38755000D01*
X105410000Y-38100000D02*
X105410000Y-36830000D01*
%TO.N,GND*%
X94420000Y-44490000D02*
X92950000Y-45960000D01*
X85315000Y-37518654D02*
X86533654Y-36300000D01*
X102675000Y-38295000D02*
X102870000Y-38100000D01*
X86533654Y-36300000D02*
X88726346Y-36300000D01*
X92950000Y-55270000D02*
X92950000Y-45960000D01*
X92710000Y-45720000D02*
X90170000Y-45720000D01*
X88726346Y-36300000D02*
X90170000Y-37743654D01*
X85315000Y-37518654D02*
X85315000Y-78394716D01*
X85815284Y-78895000D02*
X87180000Y-78895000D01*
X96520000Y-44490000D02*
X94420000Y-44490000D01*
X105410000Y-46990000D02*
X102910000Y-44490000D01*
X85315000Y-78394716D02*
X85815284Y-78895000D01*
X90170000Y-37743654D02*
X90170000Y-38295000D01*
X90170000Y-38295000D02*
X102675000Y-38295000D01*
X90170000Y-45720000D02*
X90170000Y-38295000D01*
%TO.N,+3V3*%
X99720000Y-61570000D02*
X100330000Y-60960000D01*
%TO.N,GND*%
X92950000Y-45960000D02*
X92710000Y-45720000D01*
X102910000Y-44490000D02*
X96520000Y-44490000D01*
%TO.N,Net-(A1B-D1)*%
X103140000Y-40370000D02*
X105410000Y-38100000D01*
%TO.N,+3V3*%
X100330000Y-62230000D02*
X100330000Y-60960000D01*
%TO.N,Net-(J2-Pin_1)*%
X97550000Y-57390000D02*
X97550000Y-55270000D01*
%TO.N,+3V3*%
X107950000Y-38100000D02*
X107950000Y-40640000D01*
%TO.N,Net-(J2-Pin_1)*%
X90800000Y-56670000D02*
X92550000Y-58420000D01*
X87670000Y-45720000D02*
X90800000Y-48850000D01*
X87630000Y-38295000D02*
X87630000Y-45680000D01*
%TO.N,+3V3*%
X107950000Y-40910000D02*
X109490000Y-40910000D01*
%TO.N,Net-(J2-Pin_1)*%
X90800000Y-48850000D02*
X90800000Y-56670000D01*
%TO.N,+3V3*%
X110040000Y-68735000D02*
X106835000Y-68735000D01*
%TO.N,Net-(J2-Pin_1)*%
X96520000Y-58420000D02*
X97550000Y-57390000D01*
%TO.N,Net-(A1B-D1)*%
X103140000Y-40835000D02*
X103140000Y-40370000D01*
%TO.N,Net-(J2-Pin_1)*%
X92550000Y-58420000D02*
X96520000Y-58420000D01*
X87630000Y-45680000D02*
X87670000Y-45720000D01*
%TO.N,+3V3*%
X99670000Y-61570000D02*
X99720000Y-61570000D01*
X107950000Y-40640000D02*
X107950000Y-40910000D01*
X96520000Y-46990000D02*
X96520000Y-52000000D01*
X105601598Y-52070000D02*
X100330000Y-52070000D01*
X95250000Y-61570000D02*
X99670000Y-61570000D01*
%TO.N,Net-(D1-A)*%
X107950000Y-46990000D02*
X107950000Y-42910000D01*
%TO.N,+3V3*%
X107755000Y-40835000D02*
X107950000Y-40640000D01*
X105140000Y-40835000D02*
X107755000Y-40835000D01*
X100330000Y-52070000D02*
X96450000Y-52070000D01*
X100330000Y-60960000D02*
X100330000Y-52070000D01*
X96520000Y-52000000D02*
X96450000Y-52070000D01*
X109490000Y-40910000D02*
X109750000Y-41170000D01*
X99670000Y-61570000D02*
X100330000Y-62230000D01*
X109750000Y-47921598D02*
X105601598Y-52070000D01*
X106835000Y-68735000D02*
X100330000Y-62230000D01*
X96450000Y-52070000D02*
X95250000Y-53270000D01*
X95250000Y-53270000D02*
X95250000Y-55270000D01*
X109750000Y-41170000D02*
X109750000Y-47921598D01*
%TO.N,Net-(A1B-D1)*%
X78885000Y-58074716D02*
X78384716Y-58575000D01*
X78885000Y-38755000D02*
X78885000Y-58074716D01*
X78384716Y-58575000D02*
X77020000Y-58575000D01*
X72770000Y-36450000D02*
X76580000Y-36450000D01*
X72390000Y-36830000D02*
X72770000Y-36450000D01*
X76580000Y-36450000D02*
X78885000Y-38755000D01*
X72390000Y-38100000D02*
X72390000Y-36830000D01*
%TO.N,GND*%
X61400000Y-44490000D02*
X59930000Y-45960000D01*
X53513654Y-36300000D02*
X55706346Y-36300000D01*
X72390000Y-46990000D02*
X69890000Y-44490000D01*
X57150000Y-38295000D02*
X69655000Y-38295000D01*
X52795284Y-78895000D02*
X54160000Y-78895000D01*
X69655000Y-38295000D02*
X69850000Y-38100000D01*
X63500000Y-44490000D02*
X61400000Y-44490000D01*
X57150000Y-37743654D02*
X57150000Y-38295000D01*
X52295000Y-37518654D02*
X53513654Y-36300000D01*
X59930000Y-55270000D02*
X59930000Y-45960000D01*
X52295000Y-78394716D02*
X52795284Y-78895000D01*
X52295000Y-37518654D02*
X52295000Y-78394716D01*
X69890000Y-44490000D02*
X63500000Y-44490000D01*
X59930000Y-45960000D02*
X59690000Y-45720000D01*
X55706346Y-36300000D02*
X57150000Y-37743654D01*
X59690000Y-45720000D02*
X57150000Y-45720000D01*
X57150000Y-45720000D02*
X57150000Y-38295000D01*
%TO.N,+3V3*%
X76470000Y-40910000D02*
X76730000Y-41170000D01*
X73815000Y-68735000D02*
X67310000Y-62230000D01*
X76730000Y-41170000D02*
X76730000Y-47921598D01*
X63500000Y-52000000D02*
X63430000Y-52070000D01*
X67310000Y-60960000D02*
X67310000Y-52070000D01*
X62230000Y-53270000D02*
X62230000Y-55270000D01*
X63430000Y-52070000D02*
X62230000Y-53270000D01*
X76730000Y-47921598D02*
X72581598Y-52070000D01*
X66650000Y-61570000D02*
X67310000Y-62230000D01*
X72120000Y-40835000D02*
X74735000Y-40835000D01*
X67310000Y-52070000D02*
X63430000Y-52070000D01*
X74930000Y-40910000D02*
X76470000Y-40910000D01*
X74930000Y-38100000D02*
X74930000Y-40640000D01*
X72581598Y-52070000D02*
X67310000Y-52070000D01*
X66700000Y-61570000D02*
X67310000Y-60960000D01*
X77020000Y-68735000D02*
X73815000Y-68735000D01*
X67310000Y-62230000D02*
X67310000Y-60960000D01*
X74735000Y-40835000D02*
X74930000Y-40640000D01*
X62230000Y-61570000D02*
X66650000Y-61570000D01*
X63500000Y-46990000D02*
X63500000Y-52000000D01*
X74930000Y-40640000D02*
X74930000Y-40910000D01*
X66650000Y-61570000D02*
X66700000Y-61570000D01*
%TO.N,Net-(A1B-D1)*%
X70120000Y-40835000D02*
X70120000Y-40370000D01*
X70120000Y-40370000D02*
X72390000Y-38100000D01*
%TO.N,Net-(J2-Pin_1)*%
X54610000Y-38295000D02*
X54610000Y-45680000D01*
X63500000Y-58420000D02*
X64530000Y-57390000D01*
X54610000Y-45680000D02*
X54650000Y-45720000D01*
X54650000Y-45720000D02*
X57780000Y-48850000D01*
X59530000Y-58420000D02*
X63500000Y-58420000D01*
X57780000Y-56670000D02*
X59530000Y-58420000D01*
X64530000Y-57390000D02*
X64530000Y-55270000D01*
X57780000Y-48850000D02*
X57780000Y-56670000D01*
%TO.N,Net-(D1-A)*%
X74930000Y-46990000D02*
X74930000Y-42910000D01*
%TD*%
M02*
